PathFileType	4	(X/Y/Z)	C:/Users/beibeiliu/ov580/test_trc\sequence.19_training_dense_left.trc
DataRate	CameraRate	NumFrames	NumMarkers	Units	OrigDataRate	OrigDataStartFrame	OrigNumFrames
120	120	14	19	mm	120	1	85
Frame#	Time	ThumbCMC			ThumbMCP			ThumbIP			ThumbTip			IndexMCP			IndexPIP			IndexTip			MiddleMCP			MiddlePIP			MiddleTip			RingMCP			RingPIP			RingTip			PinkyMCP			PinkyPIP			PinkyTip			BackHand1			BackHand2			BackHand3	
		X0	Y0	Z0	X1	Y1	Z1	X2	Y2	Z2	X3	Y3	Z3	X4	Y4	Z4	X5	Y5	Z5	X6	Y6	Z6	X7	Y7	Z7	X8	Y8	Z8	X9	Y9	Z9	X10	Y10	Z10	X11	Y11	Z11	X12	Y12	Z12	X13	Y13	Z13	X14	Y14	Z14	X15	Y15	Z15	X16	Y16	Z16	X17	Y17	Z17	X18	Y18	Z18	
0	0	-136.912	35.9329	44.5544	-124.611	15.8743	26.4735	-114.939	4.1698	6.77654	-113.591	-9.44963	-14.562	-144.336	34.4436	-23.21	-137.918	23.6301	-43.4503	-132.023	6.11166	-65.7419	-163.667	30.4857	-30.9839	-163.152	20.7012	-53.9453	-163.401	6.70818	-75.9668	-181.246	26.1085	-26.8199	-182.075	19.2423	-44.3329	-182.472	9.46701	-63.5125	-203.148	19.9996	-12.7036	-204.513	13.7453	-26.5518	-204.489	8.45194	-47.2847	-185.549	45.7303	14.3699	-188.777	53.3573	44.2382	-162.293	55.3872	28.4965	
1	0.00833333	-139.132	33.4434	42.5004	-123.983	15.6244	24.8375	-120.961	4.69749	5.59412	-116.21	-9.53246	-14.8924	-145.359	32.7898	-24.7526	-140.024	20.9979	-47.4744	-134.968	4.79258	-66.7202	-163.827	28.5851	-33.5037	-163.551	20.6162	-51.7272	-165.073	5.22957	-75.9825	-186.602	25.1464	-25.2178	-181.839	17.4608	-44.6944	-182.681	6.95057	-68.5187	-201.378	20.1959	-9.39897	-206.614	11.344	-31.4036	-209.013	9.06311	-45.9108	-188.605	43.7144	18.1944	-188.038	52.5355	41.7465	-161.584	52.6113	27.3008	
2	0.0166667	-139.552	32.6406	44.1369	-125.613	16.2834	26.6581	-118.167	3.78353	1.36747	-117.551	-6.38445	-12.3267	-139.842	32.5608	-27.9821	-140.213	22.7903	-45.6632	-131.367	9.82255	-64.2077	-166.188	30.2002	-31.0032	-163.304	19.912	-52.9507	-161.532	6.68675	-74.8092	-181.433	26.9608	-24.0163	-181.461	15.5074	-49.2746	-182.712	6.07459	-67.7386	-203.253	21.5389	-11.7074	-206.587	13.045	-29.8803	-207.237	9.20988	-46.6334	-189.252	44.7137	17.3328	-187.083	50.6748	41.8854	-163.296	52.3423	30.1284	
3	0.025	-135.42	39.0403	35.6883	-125.93	22.1658	19.3005	-119.242	10.9516	-1.07069	-115.929	-0.192372	-15.9021	-142.041	41.628	-31.2886	-134.798	31.5858	-52.8264	-135.739	18.3505	-67.6731	-162.914	39.0564	-33.4742	-161.652	25.6539	-58.9666	-161.229	8.60362	-77.726	-180.27	34.2828	-30.7495	-180.907	22.1278	-52.2541	-178.149	12.2136	-66.7586	-198.282	30.5107	-14.595	-202.369	24.5962	-34.8121	-207.816	20.9874	-51.5833	-186.643	50.9807	11.3759	-190.266	56.8726	37.3656	-161.088	59.6549	24.1563	
4	0.0333333	-138.811	45.0585	35.2498	-124.014	27.5071	13.3866	-115.681	16.2095	-3.87091	-113.675	4.34054	-22.7477	-138.321	53.1198	-31.3824	-135.405	44.1225	-52.9332	-129.442	28.3611	-71.463	-158.25	47.4425	-42.5698	-155.557	29.9683	-63.4865	-154.704	10.4868	-75.954	-183.073	41.3868	-33.6491	-176.35	27.5687	-57.3202	-173.791	8.72687	-69.7508	-202.342	38.1262	-20.3239	-199.697	34.6195	-38.0797	-205.708	29.9594	-57.1698	-186.375	60.3063	8.66621	-183.353	65.0276	33.4291	-160.475	65.9214	21.2376	
5	0.0416667	-137.191	49.3973	28.3537	-124.865	32.29	10.6838	-118.127	21.6655	-11.243	-114.251	8.95423	-28.2752	-137.086	61.3524	-32.1548	-137.354	49.8957	-59.1403	-129.795	35.3055	-73.775	-161.217	54.0078	-43.8437	-155.152	37.2061	-64.2396	-155.073	8.34296	-68.6736	-182.336	49.0251	-36.5247	-176.426	31.114	-58.7296	-170.886	10.9434	-63.9086	-199.325	47.5128	-22.7533	-199.154	43.4918	-39.8896	-202.651	34.3004	-59.9911	-182.512	66.2611	10.6133	-185.04	68.5398	33.627	-156.562	71.6389	21.3489	
6	0.05	-133.817	52.9572	27.1046	-122.174	34.7443	7.32377	-119.544	24.4845	-9.6453	-117.212	14.4323	-30.0962	-140.731	67.527	-38.2003	-134.625	60.7306	-57.1618	-132.615	43.4289	-76.1513	-161.105	58.9161	-45.6779	-153.886	41.3456	-63.0986	-150.502	8.04037	-56.4249	-176.564	55.2684	-35.9032	-173.056	35.2252	-56.3669	-161.296	8.64699	-53.4106	-200.314	52.0217	-24.3601	-199.898	46.4582	-47.3009	-198.978	38.014	-64.1388	-180.422	68.4452	10.0673	-185.917	71.4763	34.3741	-159.387	76.8039	21.8022	
7	0.0583333	-132.6	55.7997	29.9699	-121.795	36.809	7.82688	-115.619	26.6869	-16.5751	-116.029	15.0568	-34.6076	-139.051	74.2864	-37.6924	-133.553	66.6571	-62.6582	-133.492	54.4689	-79.7785	-157.041	60.9744	-46.5478	-151.638	38.996	-60.7955	-143.544	11.6322	-40.0051	-173.492	56.7132	-39.1431	-170.301	32.1215	-54.0719	-159.903	11.3809	-42.6361	-198.125	56.035	-28.8139	-196.457	50.9505	-46.2829	-193.26	38.0073	-67.9591	-184.322	71.0072	8.04911	-184.249	73.6735	31.1569	-155.208	81.1227	20.1687	
8	0.0666667	-130.883	55.5508	25.4406	-121.667	36.5911	2.74159	-120.479	26.9951	-17.2734	-124.882	15.1933	-39.8617	-137.086	77.5279	-35.4538	-133.638	74.3974	-63.6922	-127.012	65.6515	-85.7052	-154.005	62.0812	-44.5669	-149.617	32.5212	-57.3538	-143.122	15.138	-32.9672	-171.694	54.1112	-42.1381	-164.8	29.2341	-51.3585	-151.901	12.5845	-31.004	-195.156	55.513	-26.0504	-193.439	51.3455	-46.9144	-191.385	39.4426	-68.1651	-179.21	71.7012	5.17114	-182.963	72.8058	32.7194	-154.797	79.2364	19.747	
9	0.075	-131.084	56.0054	25.6795	-116.775	34.4097	1.53631	-115.791	23.9659	-17.8031	-128.358	13.743	-36.2632	-134.126	79.0456	-36.9369	-134.696	79.0267	-58.5172	-130.137	77.0173	-83.2224	-149.578	60.1588	-47.4491	-142.412	33.0178	-56.8744	-139.687	17.4442	-29.7664	-165.443	52.5119	-43.7915	-162.003	26.8011	-50.0622	-150.528	13.2867	-26.6352	-188.203	55.494	-26.9507	-191.416	48.5722	-50.2282	-187.721	40.3105	-68.1531	-180.224	71.476	4.19146	-180.619	73.975	27.5162	-152.332	80.1409	19.4015	
10	0.0833333	-126.495	55.952	23.4539	-117.063	33.8786	1.89776	-118.648	21.7623	-19.7337	-131.666	10.174	-39.3235	-133.411	77.7286	-38.0645	-128.751	79.8853	-58.4184	-127.744	81.1212	-83.7148	-147.879	57.4098	-48.8662	-140.964	32.0455	-55.3619	-141.238	17.4283	-26.4838	-168.964	49.0505	-41.8029	-158.422	24.7732	-47.8014	-147.19	13.1066	-21.7653	-185.554	54.5494	-27.7479	-188.371	49.5774	-49.6777	-186.667	42.5231	-67.7454	-177.518	71.2329	4.11441	-177.157	73.0672	26.1704	-151.849	80.5042	17.5672	
11	0.0916667	-127.693	52.6174	26.4025	-113.338	29.7219	2.92262	-116.97	18.619	-19.2978	-134.562	10.8237	-35.6736	-128.209	76.8743	-37.5296	-124.776	79.2013	-59.6545	-123.96	81.1562	-78.3571	-145.774	57.9242	-45.7726	-141.332	28.6194	-54.3131	-138.31	17.9851	-21.9761	-165.598	50.3716	-39.7424	-154.375	26.3048	-47.1744	-148.741	11.801	-23.7886	-182.249	56.506	-32.2557	-184.269	52.6068	-46.3948	-188.885	47.9886	-68.5485	-174.049	72.7906	2.79515	-176.565	73.4842	28.4884	-144.91	77.6355	16.7821	
12	0.1	-124.269	50.0623	22.6934	-117.446	27.796	2.04479	-118.23	14.805	-20.4072	-136.152	8.00531	-38.8851	-122.778	75.3779	-37.1281	-118.264	78.0961	-56.809	-117.834	80.9268	-75.2828	-140.772	56.724	-46.4004	-140.149	27.3265	-52.7058	-139.915	16.3275	-24.6416	-164.412	51.1239	-40.7743	-151.814	24.8182	-45.8683	-148.518	12.8259	-22.061	-182.883	58.2469	-25.935	-184.032	57.7789	-43.2667	-187.447	60.8966	-66.169	-164.819	71.3345	3.46258	-169.087	72.1954	32.6451	-142.257	74.4725	20.3852	
13	0.108333	-120.479	43.2646	27.1714	-113.008	21.6235	-0.180313	-119.465	12.8096	-23.1433	-140.209	7.51572	-39.0523	-123.62	71.6448	-32.6359	-118.382	75.777	-52.7809	-115.332	80.537	-77.7548	-140.51	55.2096	-47.1972	-138.936	26.507	-52.4007	-138.488	15.3457	-24.7732	-159.794	50.8154	-41.1176	-155.455	26.921	-46.3728	-149.048	12.9456	-22.8642	-177.726	62.6074	-27.8348	-183.77	62.6182	-45.6548	-185.243	68.4979	-61.4862	-161.859	70.14	5.34568	-164.183	72.5509	32.2959	-137.853	73.4001	24.151	
